<svg width="26" height="22" viewBox="0 0 26 22" fill="none" xmlns="http://www.w3.org/2000/svg">
<path fill-rule="evenodd" clip-rule="evenodd" d="M0.199997 7.5999C0.199997 7.38773 0.284283 7.18425 0.434312 7.03422C0.584341 6.88419 0.787824 6.7999 0.999997 6.7999H19.0928C19.305 6.7999 19.5085 6.88419 19.6585 7.03422C19.8085 7.18425 19.8928 7.38773 19.8928 7.5999C19.8928 7.81208 19.8085 8.01556 19.6585 8.16559C19.5085 8.31562 19.305 8.3999 19.0928 8.3999H0.999997C0.787824 8.3999 0.584341 8.31562 0.434312 8.16559C0.284283 8.01556 0.199997 7.81208 0.199997 7.5999ZM0.199997 1.1999C0.199997 0.987729 0.284283 0.784246 0.434312 0.634217C0.584341 0.484188 0.787824 0.399902 0.999997 0.399902H25C25.2122 0.399902 25.4157 0.484188 25.5657 0.634217C25.7157 0.784246 25.8 0.987729 25.8 1.1999C25.8 1.41208 25.7157 1.61556 25.5657 1.76559C25.4157 1.91562 25.2122 1.9999 25 1.9999H0.999997C0.787824 1.9999 0.584341 1.91562 0.434312 1.76559C0.284283 1.61556 0.199997 1.41208 0.199997 1.1999ZM0.199997 13.9999C0.199997 13.7877 0.284283 13.5842 0.434312 13.4342C0.584341 13.2842 0.787824 13.1999 0.999997 13.1999H25C25.2122 13.1999 25.4157 13.2842 25.5657 13.4342C25.7157 13.5842 25.8 13.7877 25.8 13.9999C25.8 14.2121 25.7157 14.4156 25.5657 14.5656C25.4157 14.7156 25.2122 14.7999 25 14.7999H0.999997C0.787824 14.7999 0.584341 14.7156 0.434312 14.5656C0.284283 14.4156 0.199997 14.2121 0.199997 13.9999ZM0.199997 20.3999C0.199997 20.1877 0.284283 19.9842 0.434312 19.8342C0.584341 19.6842 0.787824 19.5999 0.999997 19.5999H19.0928C19.305 19.5999 19.5085 19.6842 19.6585 19.8342C19.8085 19.9842 19.8928 20.1877 19.8928 20.3999C19.8928 20.6121 19.8085 20.8156 19.6585 20.9656C19.5085 21.1156 19.305 21.1999 19.0928 21.1999H0.999997C0.787824 21.1999 0.584341 21.1156 0.434312 20.9656C0.284283 20.8156 0.199997 20.6121 0.199997 20.3999Z" fill="black"/>
</svg>
