<svg width="38" height="55" viewBox="0 0 38 55" fill="none" xmlns="http://www.w3.org/2000/svg">
<path fill-rule="evenodd" clip-rule="evenodd" d="M15.416 29.136L1.10664 2.22133C1.02443 2.06672 0.973484 1.89744 0.9567 1.72313C0.939917 1.54883 0.95763 1.37294 1.00883 1.20548C1.11222 0.86729 1.34573 0.584024 1.65797 0.417999C1.97022 0.251973 2.33563 0.216788 2.67383 0.320183C2.84128 0.371379 2.99701 0.455056 3.13213 0.566437C3.26724 0.677819 3.3791 0.814723 3.46131 0.969332L17.772 27.884L19.8013 26.804C20.4198 26.4752 21.097 26.2714 21.7943 26.2044C22.4916 26.1373 23.1952 26.2083 23.8651 26.4132C24.5349 26.6181 25.1578 26.9529 25.6982 27.3986C26.2386 27.8443 26.686 28.3921 27.0146 29.0107L27.8786 30.636L37.0386 44.0413L25.388 50.2347L21.352 42.2573L18.9733 43.4613L23.0333 51.488L18.0386 54.1427L12.0453 39.052L11.1826 37.428C10.8538 36.8096 10.6499 36.1324 10.5828 35.4352C10.5156 34.738 10.5865 34.0344 10.7913 33.3646C10.996 32.6947 11.3308 32.0718 11.7763 31.5313C12.2219 30.9909 12.7695 30.5435 13.388 30.2147L15.416 29.136ZM21.052 29.16L14.6386 32.5693C14.3294 32.7337 14.0556 32.9574 13.8328 33.2277C13.61 33.4979 13.4427 33.8094 13.3403 34.1443C13.2379 34.4792 13.2025 34.831 13.236 35.1796C13.2696 35.5282 13.3715 35.8668 13.536 36.176L14.3986 37.8L25.5226 31.8853L24.6586 30.2627C24.4942 29.9534 24.2705 29.6796 24.0003 29.4568C23.7301 29.2341 23.4186 29.0667 23.0837 28.9643C22.7488 28.8619 22.397 28.8265 22.0484 28.8601C21.6998 28.8936 21.3612 28.9956 21.052 29.16Z" fill="#060607"/>
</svg>
