<svg width="38" height="60" viewBox="0 0 38 60" fill="none" xmlns="http://www.w3.org/2000/svg">
<path d="M10.3333 59.3333C8.99995 59.3333 7.83284 58.8995 6.83195 58.032C5.83106 57.1644 5.24261 56.0649 5.06661 54.7333L0.733281 22.3333C0.644392 21.5333 0.866614 20.8338 1.39995 20.2347C1.93328 19.6355 2.59995 19.3351 3.39995 19.3333H34.5999C35.3999 19.3333 36.0666 19.6338 36.5999 20.2347C37.1333 20.8355 37.3555 21.5351 37.2666 22.3333L32.9333 54.7333C32.7555 56.0667 32.1662 57.1671 31.1653 58.0347C30.1644 58.9022 28.9982 59.3351 27.6666 59.3333H10.3333ZM18.9999 40.6667C21.2222 40.6667 23.1111 39.8889 24.6666 38.3333C26.2222 36.7778 26.9999 34.8889 26.9999 32.6667V30C26.9999 29.2444 26.7439 28.6107 26.2319 28.0987C25.7199 27.5867 25.0871 27.3315 24.3333 27.3333C23.5777 27.3333 22.9439 27.5893 22.4319 28.1013C21.9199 28.6133 21.6648 29.2462 21.6666 30V32.6667C21.6666 33.4222 21.4106 34.056 20.8986 34.568C20.3866 35.08 19.7537 35.3351 18.9999 35.3333C18.2444 35.3333 17.6106 35.0773 17.0986 34.5653C16.5866 34.0533 16.3315 33.4204 16.3333 32.6667V30C16.3333 29.2444 16.0773 28.6107 15.5653 28.0987C15.0533 27.5867 14.4204 27.3315 13.6666 27.3333C12.9111 27.3333 12.2773 27.5893 11.7653 28.1013C11.2533 28.6133 10.9982 29.2462 10.9999 30V32.6667C10.9999 34.8889 11.7777 36.7778 13.3333 38.3333C14.8888 39.8889 16.7777 40.6667 18.9999 40.6667ZM26.9999 16.6667C25.8888 16.6667 24.9439 16.2773 24.1653 15.4987C23.3866 14.72 22.9982 13.776 22.9999 12.6667C22.9999 11.5555 23.3893 10.6107 24.1679 9.83199C24.9466 9.05332 25.8906 8.66488 26.9999 8.66666C28.1111 8.66666 29.0559 9.05599 29.8346 9.83466C30.6133 10.6133 31.0017 11.5573 30.9999 12.6667C30.9999 13.7778 30.6106 14.7227 29.8319 15.5013C29.0533 16.28 28.1093 16.6684 26.9999 16.6667ZM13.6666 14C11.7999 14 10.2222 13.3555 8.93328 12.0667C7.64439 10.7778 6.99995 9.19999 6.99995 7.33332C6.99995 5.46666 7.64439 3.88888 8.93328 2.59999C10.2222 1.3111 11.7999 0.666656 13.6666 0.666656C15.5333 0.666656 17.1111 1.3111 18.3999 2.59999C19.6888 3.88888 20.3333 5.46666 20.3333 7.33332C20.3333 9.19999 19.6888 10.7778 18.3999 12.0667C17.1111 13.3555 15.5333 14 13.6666 14Z" fill="#060607"/>
</svg>
