<svg width="30" height="54" viewBox="0 0 30 54" fill="none" xmlns="http://www.w3.org/2000/svg">
<path d="M26.5866 22.8133C21.1466 17.3733 20.6666 7.42666 20.6666 5.66666H16.6666V11H5.99996V5.66666H0.666626C0.666626 2.73333 3.06663 0.333328 5.99996 0.333328H24.6666V2.99999C24.6666 3.21333 24.7733 15.3467 29.4133 19.9867L26.5866 22.8133ZM27.3333 0.333328V5.66666H30V0.333328H27.3333ZM22 27C16.6666 21.6667 16.6666 13.6667 16.6666 13.6667H5.99996V19C5.99996 21.6667 5.99996 21.6667 3.33329 24.3333C0.666626 27 0.666626 29.6667 0.666626 29.6667V48.3333C0.666626 51.2667 3.06663 53.6667 5.99996 53.6667H16.6666C19.6 53.6667 22 51.2667 22 48.3333V27Z" fill="#33B5FF"/>
</svg>
